<svg xmlns="http://www.w3.org/2000/svg" width="73.88" height="22.36" viewBox="0 0 73.88 22.36">
  <path id="パス_4016" data-name="パス 4016" d="M-33.18-17.84a2.156,2.156,0,0,1-1.58-.66,2.156,2.156,0,0,1-.66-1.58,2.2,2.2,0,0,1,.66-1.62,2.156,2.156,0,0,1,1.58-.66,2.156,2.156,0,0,1,1.58.66,2.2,2.2,0,0,1,.66,1.62,2.156,2.156,0,0,1-.66,1.58A2.156,2.156,0,0,1-33.18-17.84ZM-36.1-.04a1.04,1.04,0,0,1-.62-.16.479.479,0,0,1-.22-.4.5.5,0,0,1,.24-.44.915.915,0,0,1,.68-.08q1.2.24,1.6-1.28a11.231,11.231,0,0,0,.24-2.72q0-1.32-.04-2.04l-.04-2.68a3.81,3.81,0,0,0-.34-1.74,1.15,1.15,0,0,0-1.1-.66,1.312,1.312,0,0,1-.62-.12.359.359,0,0,1-.22-.32.481.481,0,0,1,.22-.34,1.4,1.4,0,0,1,.62-.26,7.346,7.346,0,0,0,2.56-1.32q.16-.08.56-.34a1.3,1.3,0,0,1,.64-.26q.56,0,.56.48l-.08,1.6-.16,2.76q-.08,1.48-.08,3.92a27.988,27.988,0,0,0,.2,4.04,1.838,1.838,0,0,0,.44,1,1.245,1.245,0,0,0,.92.32,2.485,2.485,0,0,0,.48-.04l.24-.04a.727.727,0,0,1,.5.16.513.513,0,0,1,.18.4.479.479,0,0,1-.22.4,1.04,1.04,0,0,1-.62.16H-36.1ZM-15.5,0a7.392,7.392,0,0,1-3.4-.86,7.046,7.046,0,0,1-2.76-2.56,7.565,7.565,0,0,1-1.08-4.14,7.77,7.77,0,0,1,1.08-4.18,6.962,6.962,0,0,1,2.76-2.6,7.392,7.392,0,0,1,3.4-.86,7.374,7.374,0,0,1,3.9.92,4.7,4.7,0,0,1,1.98,2.04,3.17,3.17,0,0,1,.32,1.36,1.636,1.636,0,0,1-.38,1.14,1.137,1.137,0,0,1-.86.42.948.948,0,0,1-.74-.34,1.594,1.594,0,0,1-.34-.98,3.694,3.694,0,0,0-1.06-2.56,3.865,3.865,0,0,0-2.82-.96,2.984,2.984,0,0,0-2.02.84,5.945,5.945,0,0,0-1.52,2.34,9.312,9.312,0,0,0-.58,3.38,7.62,7.62,0,0,0,.66,3.28,5.35,5.35,0,0,0,1.7,2.14,3.677,3.677,0,0,0,2.16.74,4.948,4.948,0,0,0,2.72-.74A6.751,6.751,0,0,0-10.3-4.44a.591.591,0,0,1,.52-.36.432.432,0,0,1,.32.12.432.432,0,0,1,.12.32A.655.655,0,0,1-9.42-4a6.934,6.934,0,0,1-2.5,2.9A6.359,6.359,0,0,1-15.5,0ZM5.14,0A8.443,8.443,0,0,1,1.46-.84,6.858,6.858,0,0,1-1.4-3.4,7.56,7.56,0,0,1-2.5-7.56a7.533,7.533,0,0,1,1.12-4.2,7.169,7.169,0,0,1,2.86-2.58,8.156,8.156,0,0,1,3.66-.86,8.281,8.281,0,0,1,3.68.86,7.134,7.134,0,0,1,2.88,2.58,7.533,7.533,0,0,1,1.12,4.2A7.458,7.458,0,0,1,11.7-3.4,6.99,6.99,0,0,1,8.82-.84,8.443,8.443,0,0,1,5.14,0Zm0-1.04a3.844,3.844,0,0,0,3.32-1.8A8.24,8.24,0,0,0,9.7-7.6a8.161,8.161,0,0,0-1.26-4.74,3.848,3.848,0,0,0-3.3-1.82,3.848,3.848,0,0,0-3.3,1.82A8.161,8.161,0,0,0,.58-7.6,8.161,8.161,0,0,0,1.84-2.86,3.848,3.848,0,0,0,5.14-1.04ZM19.22-12.68a.481.481,0,0,1,.22-.34,1.4,1.4,0,0,1,.62-.26,7.346,7.346,0,0,0,2.56-1.32q.16-.08.56-.34a1.3,1.3,0,0,1,.64-.26q.56,0,.56.48t-.04.88v.08a.252.252,0,0,0,.14.26q.14.06.34-.1a6.054,6.054,0,0,1,3.88-1.6,4.759,4.759,0,0,1,2.58.8,5.915,5.915,0,0,1,2.08,2.46,9.207,9.207,0,0,1,.82,4.1l-.04,3.6a7.525,7.525,0,0,0,.28,2.38,1.09,1.09,0,0,0,1.12.78,2.132,2.132,0,0,0,.48-.04l.24-.04a.727.727,0,0,1,.5.16.513.513,0,0,1,.18.4.479.479,0,0,1-.22.4,1.04,1.04,0,0,1-.62.16H29.46a1.04,1.04,0,0,1-.62-.16.479.479,0,0,1-.22-.4.5.5,0,0,1,.24-.44.915.915,0,0,1,.68-.08,1.188,1.188,0,0,0,1.5-.9,12.548,12.548,0,0,0,.34-3.42V-7.6a7.866,7.866,0,0,0-.54-3,5.129,5.129,0,0,0-1.4-2.04,2.707,2.707,0,0,0-1.74-.72,2.642,2.642,0,0,0-1.74.7,5.613,5.613,0,0,0-1.34,1.7,4.1,4.1,0,0,0-.52,1.88q-.04.96-.04,2.68a33.164,33.164,0,0,0,.2,4,1.838,1.838,0,0,0,.44,1,1.245,1.245,0,0,0,.92.32,2.485,2.485,0,0,0,.48-.04l.24-.04a.727.727,0,0,1,.5.16.513.513,0,0,1,.18.4.479.479,0,0,1-.22.4,1.04,1.04,0,0,1-.62.16H19.66a1.04,1.04,0,0,1-.62-.16.479.479,0,0,1-.22-.4.5.5,0,0,1,.24-.44.915.915,0,0,1,.68-.08q1.2.24,1.6-1.28a10.1,10.1,0,0,0,.28-2.64l-.04-2.08Q21.5-8.8,21.5-9.84a3.81,3.81,0,0,0-.34-1.74,1.15,1.15,0,0,0-1.1-.66,1.312,1.312,0,0,1-.62-.12A.359.359,0,0,1,19.22-12.68Z" transform="translate(36.94 22.36)"/>
</svg>
