<svg xmlns="http://www.w3.org/2000/svg" width="85.96" height="28" viewBox="0 0 85.96 28">
  <path id="パス_4015" data-name="パス 4015" d="M-33.26,0a10.865,10.865,0,0,1-4.48-.8,13.594,13.594,0,0,1-2.68-1.52,6.513,6.513,0,0,0-1-.72q-.24,0-.36.5a4.714,4.714,0,0,0-.12,1.1.727.727,0,0,1-.16.5.513.513,0,0,1-.4.18.479.479,0,0,1-.38-.16.711.711,0,0,1-.14-.48V-9.44a.792.792,0,0,1,.16-.54.513.513,0,0,1,.4-.18.5.5,0,0,1,.36.16.6.6,0,0,1,.16.44,7.717,7.717,0,0,0,1.24,4.2,9.362,9.362,0,0,0,3.22,3.12A8.074,8.074,0,0,0-33.3-1.08a7.763,7.763,0,0,0,4.8-1.24,4.649,4.649,0,0,0,1.6-3.92,4.741,4.741,0,0,0-2.08-3.9,25.066,25.066,0,0,0-5.4-2.98,34.39,34.39,0,0,1-3.84-1.9,9.508,9.508,0,0,1-2.76-2.46,5.888,5.888,0,0,1-1.16-3.68,5.99,5.99,0,0,1,1.06-3.44,7.418,7.418,0,0,1,2.92-2.48A9.393,9.393,0,0,1-33.94-28a10.286,10.286,0,0,1,3.56.56,23.1,23.1,0,0,1,3,1.36,2.985,2.985,0,0,0,.76.36q.4,0,.4-1.08a.583.583,0,0,1,.16-.46.533.533,0,0,1,.36-.14.513.513,0,0,1,.4.18.727.727,0,0,1,.16.5v7.6a1.221,1.221,0,0,1-.16.68.47.47,0,0,1-.4.24.445.445,0,0,1-.36-.24,1.221,1.221,0,0,1-.16-.68,7.611,7.611,0,0,0-.98-3.68,8.2,8.2,0,0,0-2.74-2.96,7.1,7.1,0,0,0-4-1.16,7.31,7.31,0,0,0-3.1.62,4.953,4.953,0,0,0-2.04,1.62,3.693,3.693,0,0,0-.7,2.16,4.531,4.531,0,0,0,1.48,3.56,17.226,17.226,0,0,0,4.52,2.64,40.476,40.476,0,0,1,4.84,2.46,11.468,11.468,0,0,1,3.32,3.02A6.975,6.975,0,0,1-24.3-6.6a5.538,5.538,0,0,1-2.56,4.88A11.228,11.228,0,0,1-33.26,0Zm20.8-24.2a2.717,2.717,0,0,0-1.2-1.52,4.2,4.2,0,0,0-2.04-.44q-.4,0-1.28.08h-.16a.875.875,0,0,1-.56-.16.493.493,0,0,1-.2-.4.449.449,0,0,1,.22-.36,1.04,1.04,0,0,1,.62-.16H-5.62A1.04,1.04,0,0,1-5-27a.479.479,0,0,1,.22.4.465.465,0,0,1-.26.4,1.037,1.037,0,0,1-.66.12q-.8-.08-1.16-.08-2.4,0-2.4,1.24a2.205,2.205,0,0,0,.08.44L-2.54-5.36q.16.4.4.4.28,0,.4-.4L4.58-23.24a4.076,4.076,0,0,0,.2-1.08,1.6,1.6,0,0,0-.64-1.36,3.1,3.1,0,0,0-1.88-.48,8.488,8.488,0,0,0-.96.08H1.18a.667.667,0,0,1-.46-.16.513.513,0,0,1-.18-.4A.459.459,0,0,1,.74-27a.807.807,0,0,1,.52-.16h9.52a.792.792,0,0,1,.54.16.513.513,0,0,1,.18.4.493.493,0,0,1-.2.4.738.738,0,0,1-.56.12,5.129,5.129,0,0,0-.76-.04,3.964,3.964,0,0,0-2.02.52,3.135,3.135,0,0,0-1.34,1.64L-2.02-.84q-.28.76-.88.76A.954.954,0,0,1-3.5-.3a1.224,1.224,0,0,1-.4-.54ZM30.86,0a13.085,13.085,0,0,1-6.14-1.56,12.489,12.489,0,0,1-4.9-4.72,14.526,14.526,0,0,1-1.92-7.68,14.632,14.632,0,0,1,1.92-7.7,12.6,12.6,0,0,1,4.9-4.76A12.954,12.954,0,0,1,30.86-28a14.726,14.726,0,0,1,5.38.86,12.452,12.452,0,0,1,3.5,1.98.806.806,0,0,0,.48.24q.4,0,.4-1.08a.583.583,0,0,1,.16-.46.533.533,0,0,1,.36-.14.513.513,0,0,1,.4.18.727.727,0,0,1,.16.5v7.6a1.221,1.221,0,0,1-.16.68.47.47,0,0,1-.4.24.445.445,0,0,1-.36-.24,1.221,1.221,0,0,1-.16-.68,7.551,7.551,0,0,0-1.22-3.9,9.848,9.848,0,0,0-3.46-3.36,9.7,9.7,0,0,0-5.08-1.34,8.3,8.3,0,0,0-5.06,1.64,10.7,10.7,0,0,0-3.46,4.58,17.214,17.214,0,0,0-1.24,6.74,17.066,17.066,0,0,0,1.24,6.72A10.575,10.575,0,0,0,25.8-2.7a8.365,8.365,0,0,0,5.06,1.62A8.583,8.583,0,0,0,36-2.56a5.429,5.429,0,0,0,2.38-3.72,10.617,10.617,0,0,0,.12-1.48,3.206,3.206,0,0,0-.86-2.54,4.156,4.156,0,0,0-2.74-.74q-.6,0-2.2.16h-.16a.875.875,0,0,1-.56-.16.493.493,0,0,1-.2-.4A.449.449,0,0,1,32-11.8a1.04,1.04,0,0,1,.62-.16H42.3a.8.8,0,0,1,.5.14.418.418,0,0,1,.18.34.519.519,0,0,1-.24.42,1.115,1.115,0,0,1-.68.18.279.279,0,0,0-.32.24,12.6,12.6,0,0,0-.04,1.36A8.938,8.938,0,0,1,40.36-4.4a8.709,8.709,0,0,1-3.78,3.26A13.391,13.391,0,0,1,30.86,0Z" transform="translate(42.98 28)"/>
</svg>
